<?xml version="1.0" encoding="UTF-8" standalone="no"?>
<!-- Created with Inkscape (http://www.inkscape.org/) -->

<svg
   xmlns:dc="http://purl.org/dc/elements/1.1/"
   xmlns:cc="http://creativecommons.org/ns#"
   xmlns:rdf="http://www.w3.org/1999/02/22-rdf-syntax-ns#"
   xmlns:svg="http://www.w3.org/2000/svg"
   xmlns="http://www.w3.org/2000/svg"
   version="1.1"
   width="595.276pt"
   height="841.89001pt"
   viewBox="0 0 595.276 841.89"
   id="svg2"
   style="fill-rule:evenodd">
  <metadata
     id="metadata44">
    <rdf:RDF>
      <cc:Work
         rdf:about="">
        <dc:format>image/svg+xml</dc:format>
        <dc:type
           rdf:resource="http://purl.org/dc/dcmitype/StillImage" />
        <dc:title></dc:title>
      </cc:Work>
    </rdf:RDF>
  </metadata>
  <defs
     id="defs4">
    <marker
       markerUnits="strokeWidth"
       refX="0"
       refY="5"
       markerWidth="4"
       markerHeight="3"
       orient="auto"
       viewBox="0 0 10 10"
       id="ArrowEnd">
      <path
         d="M 0,0 10,5 0,10 z"
         id="path7" />
    </marker>
    <marker
       markerUnits="strokeWidth"
       refX="10"
       refY="5"
       markerWidth="4"
       markerHeight="3"
       orient="auto"
       viewBox="0 0 10 10"
       id="ArrowStart">
      <path
         d="M 10,0 0,5 10,10 z"
         id="path10" />
    </marker>
  </defs>
  <g
     id="g12">
    <g
       id="g14">
      <g
         id="g16">
        <g
           id="g18">
          <path
             d="m 251.615,421.579 2.183,0 c -0.492,-1.391 -1.818,-2.388 -3.377,-2.388 l 0,-2.387 c 3.296,0 5.969,2.672 5.969,5.969 0,3.296 -2.673,5.969 -5.969,5.969 l 0,-2.388 c 1.559,0 2.885,-0.997 3.377,-2.388 l -2.183,0 0,-2.387 z"
             id="path20"
             style="fill:none;stroke:#000000;stroke-width:0.479965" />
          <path
             d="m 250.421,413.03 9.55,0 0,10.937 3.581,-6.203 0,-4.541 2.388,0 0,13.131 6.565,0 0,2.388 -8.953,0 0,-6.203 -3.581,6.203 -2.388,0 0,-13.325 -7.162,0 0,-2.387 z"
             id="path22"
             style="fill:none;stroke:#000000;stroke-width:0.479965" />
          <path
             d="m 268.327,424.967 c 2.308,0 4.178,-1.87 4.178,-4.178 0,-1.331 -0.622,-2.517 -1.593,-3.282 0.254,-0.439 0.4,-0.949 0.4,-1.493 0,-1.648 -1.336,-2.984 -2.985,-2.984 l -1.193,0 0,2.387 1.193,0 c 0.33,0 0.597,0.268 0.597,0.597 0,0.33 -0.267,0.597 -0.597,0.597 l -1.193,0 0,2.388 1.193,0 c 0.989,0 1.791,0.801 1.791,1.79 0,0.989 -0.802,1.791 -1.791,1.791 l -1.193,0 0,2.387 1.193,0 z"
             id="path24"
             style="fill:none;stroke:#000000;stroke-width:0.479965" />
          <path
             d="m 277.043,413.777 c 0.402,0.189 0.783,0.41 1.141,0.658 -0.461,0.548 -0.434,1.368 0.082,1.884 0.516,0.515 1.334,0.543 1.882,0.083 0.251,0.361 0.471,0.743 0.658,1.14 -0.672,0.245 -1.057,0.968 -0.868,1.672 0.189,0.705 0.884,1.138 1.59,1.013 0.036,0.434 0.037,0.874 -0.001,1.317 -0.705,-0.125 -1.4,0.309 -1.589,1.013 -0.189,0.705 0.197,1.428 0.87,1.672 -0.189,0.403 -0.41,0.784 -0.659,1.141 -0.548,-0.461 -1.367,-0.433 -1.883,0.083 -0.515,0.515 -0.543,1.333 -0.084,1.881 -0.361,0.251 -0.742,0.471 -1.14,0.658 -0.245,-0.671 -0.967,-1.056 -1.671,-0.868 -0.705,0.189 -1.138,0.885 -1.013,1.59 -0.218,0.019 -0.438,0.028 -0.659,0.028 l 0,-2.388 c 3.02,0 5.469,-2.448 5.469,-5.468 0,-3.02 -2.449,-5.469 -5.469,-5.469 l 0,-2.387 c 0.219,0 0.438,0.009 0.659,0.028 -0.125,0.705 0.308,1.4 1.013,1.589 0.704,0.189 1.427,-0.197 1.672,-0.87 z"
             id="path26"
             style="fill:none;stroke:#000000;stroke-width:0.479965" />
          <path
             d="m 273.699,416.588 c 2.374,0 4.298,1.924 4.298,4.298 0,2.373 -1.924,4.297 -4.298,4.297 l 0,-3.226 c 0.592,0 1.072,-0.479 1.072,-1.071 0,-0.592 -0.48,-1.072 -1.072,-1.072 l 0,-3.226 z"
             id="path28"
             style="fill:none;stroke:#000000;stroke-width:0.479965" />
          <path
             d="m 245.883,413.777 c -0.402,0.189 -0.783,0.41 -1.14,0.658 0.46,0.548 0.433,1.368 -0.083,1.884 -0.515,0.515 -1.333,0.543 -1.882,0.083 -0.25,0.361 -0.47,0.743 -0.658,1.14 0.672,0.245 1.057,0.968 0.869,1.672 -0.189,0.705 -0.885,1.138 -1.59,1.013 -0.037,0.434 -0.037,0.874 0,1.317 0.705,-0.125 1.401,0.309 1.589,1.013 0.189,0.705 -0.196,1.428 -0.869,1.672 0.189,0.403 0.409,0.784 0.658,1.141 0.548,-0.461 1.367,-0.433 1.883,0.083 0.516,0.515 0.543,1.333 0.084,1.881 0.361,0.251 0.742,0.471 1.14,0.658 0.245,-0.671 0.967,-1.056 1.671,-0.868 0.705,0.189 1.139,0.885 1.014,1.59 0.218,0.019 0.437,0.028 0.658,0.028 l 0,-2.388 c -3.02,0 -5.468,-2.448 -5.468,-5.468 0,-3.02 2.448,-5.469 5.468,-5.469 l 0,-2.387 c -0.218,0 -0.438,0.009 -0.658,0.028 0.124,0.705 -0.309,1.4 -1.013,1.589 -0.705,0.189 -1.428,-0.197 -1.673,-0.87 z"
             id="path30"
             style="fill:none;stroke:#000000;stroke-width:0.479965" />
          <path
             d="m 249.227,416.588 c -2.373,0 -4.297,1.924 -4.297,4.298 0,2.373 1.924,4.297 4.297,4.297 l 0,-3.226 c -0.592,0 -1.071,-0.479 -1.071,-1.071 0,-0.592 0.479,-1.072 1.071,-1.072 l 0,-3.226 z"
             id="path32"
             style="fill:none;stroke:#000000;stroke-width:0.479965" />
        </g>
        <g
           id="g34">
          <path
             d="m 283.152,413.251 1.039,0 c 0.344,0 0.637,0.121 0.881,0.365 0.244,0.244 0.367,0.538 0.367,0.881 l 0,1.664 c 0,0.344 -0.123,0.638 -0.367,0.881 -0.244,0.244 -0.537,0.367 -0.881,0.367 l -1.039,0 c -0.059,0 -0.108,-0.02 -0.148,-0.06 -0.041,-0.04 -0.061,-0.09 -0.061,-0.148 0,-0.058 0.02,-0.108 0.061,-0.148 0.04,-0.04 0.089,-0.06 0.148,-0.06 l 1.039,0 c 0.227,0 0.423,-0.081 0.586,-0.245 0.164,-0.164 0.246,-0.359 0.246,-0.587 l 0,-0.832 -1.04,0 c -0.059,0 -0.107,-0.02 -0.148,-0.06 -0.04,-0.04 -0.06,-0.09 -0.06,-0.147 0,-0.059 0.02,-0.108 0.06,-0.148 0.041,-0.041 0.089,-0.061 0.148,-0.061 l 1.04,0 0,-0.416 c 0,-0.227 -0.082,-0.421 -0.246,-0.585 -0.163,-0.164 -0.359,-0.246 -0.586,-0.246 l -1.039,0 c -0.059,0 -0.108,-0.021 -0.148,-0.061 -0.041,-0.04 -0.061,-0.089 -0.061,-0.147 0,-0.058 0.02,-0.107 0.061,-0.147 0.04,-0.04 0.089,-0.06 0.148,-0.06 z m 3.137,0.06 c 0.04,-0.04 0.09,-0.06 0.148,-0.06 0.059,0 0.108,0.02 0.148,0.06 0.04,0.04 0.06,0.089 0.06,0.147 l 0,1.455 1.664,0 0,-1.455 c 0,-0.058 0.02,-0.107 0.06,-0.147 0.04,-0.04 0.09,-0.06 0.148,-0.06 0.058,0 0.107,0.02 0.147,0.06 0.041,0.04 0.061,0.089 0.061,0.147 l 0,3.743 c 0,0.058 -0.02,0.108 -0.061,0.148 -0.04,0.04 -0.089,0.06 -0.147,0.06 -0.058,0 -0.108,-0.02 -0.148,-0.06 -0.04,-0.04 -0.06,-0.09 -0.06,-0.148 l 0,-1.872 -1.664,0 0,1.872 c 0,0.058 -0.02,0.108 -0.06,0.148 -0.04,0.04 -0.089,0.06 -0.148,0.06 -0.058,0 -0.108,-0.02 -0.148,-0.06 -0.04,-0.04 -0.06,-0.09 -0.06,-0.148 l 0,-3.743 c 0,-0.058 0.02,-0.107 0.06,-0.147 z m 3.475,-0.06 1.664,0 c 0.059,0 0.107,0.02 0.147,0.06 0.041,0.04 0.061,0.089 0.061,0.147 0,0.058 -0.02,0.107 -0.061,0.147 -0.04,0.04 -0.088,0.061 -0.147,0.061 l -1.455,0 0,3.535 c 0,0.058 -0.02,0.108 -0.061,0.148 -0.039,0.04 -0.089,0.06 -0.148,0.06 -0.058,0 -0.107,-0.02 -0.147,-0.06 -0.04,-0.04 -0.06,-0.09 -0.06,-0.148 l 0,-3.743 c 0,-0.058 0.02,-0.107 0.06,-0.147 0.04,-0.04 0.089,-0.06 0.147,-0.06 z m 2.703,0 1.664,0 c 0.059,0 0.107,0.02 0.147,0.06 0.041,0.04 0.062,0.089 0.062,0.147 0,0.058 -0.021,0.107 -0.062,0.147 -0.04,0.04 -0.088,0.061 -0.147,0.061 l -1.455,0 0,1.247 1.039,0 c 0.059,0 0.107,0.02 0.149,0.061 0.04,0.04 0.06,0.089 0.06,0.148 0,0.057 -0.02,0.107 -0.06,0.147 -0.042,0.04 -0.09,0.06 -0.149,0.06 l -1.039,0 0,1.664 1.455,0 c 0.059,0 0.107,0.02 0.147,0.06 0.041,0.04 0.062,0.09 0.062,0.148 0,0.058 -0.021,0.108 -0.062,0.148 -0.04,0.04 -0.088,0.06 -0.147,0.06 l -1.664,0 c -0.057,0 -0.107,-0.02 -0.147,-0.06 -0.04,-0.04 -0.06,-0.09 -0.06,-0.148 l 0,-3.743 c 0,-0.058 0.02,-0.107 0.06,-0.147 0.04,-0.04 0.09,-0.06 0.147,-0.06 z m 2.455,3.95 c 0,-0.013 0.002,-0.033 0.008,-0.054 l 1.036,-3.722 c 0.035,-0.117 0.103,-0.174 0.204,-0.174 l 1.039,0 c 0.057,0 0.107,0.02 0.147,0.06 0.04,0.04 0.06,0.089 0.06,0.147 l 0,3.743 c 0,0.058 -0.02,0.108 -0.06,0.148 -0.04,0.04 -0.09,0.06 -0.147,0.06 -0.058,0 -0.108,-0.02 -0.148,-0.06 -0.039,-0.04 -0.061,-0.09 -0.061,-0.148 l 0,-3.535 -0.669,0 -1.002,3.589 c -0.028,0.102 -0.094,0.154 -0.2,0.154 -0.061,0 -0.111,-0.021 -0.15,-0.062 -0.038,-0.042 -0.057,-0.09 -0.057,-0.146 z m 3.386,-3.89 c 0.04,-0.04 0.09,-0.06 0.147,-0.06 0.059,0 0.109,0.02 0.149,0.06 0.04,0.04 0.06,0.089 0.06,0.147 l 0,1.455 0.832,0 c 0.344,0 0.637,0.123 0.881,0.367 0.244,0.244 0.367,0.537 0.367,0.881 0,0.344 -0.123,0.638 -0.367,0.881 -0.244,0.244 -0.537,0.367 -0.881,0.367 l -1.041,0 c -0.057,0 -0.107,-0.02 -0.147,-0.06 -0.04,-0.04 -0.06,-0.09 -0.06,-0.148 l 0,-3.743 c 0,-0.058 0.02,-0.107 0.06,-0.147 z m 0.356,2.018 0,1.664 0.832,0 c 0.227,0 0.423,-0.081 0.585,-0.245 0.164,-0.164 0.247,-0.359 0.247,-0.587 0,-0.227 -0.083,-0.423 -0.247,-0.585 -0.162,-0.164 -0.358,-0.247 -0.585,-0.247 l -0.832,0 z m 4.033,-2.078 0.625,0 c 0.058,0 0.107,0.02 0.147,0.06 0.04,0.04 0.06,0.089 0.06,0.147 0,0.058 -0.02,0.107 -0.06,0.147 -0.04,0.04 -0.089,0.061 -0.147,0.061 l -0.625,0 c -0.226,0 -0.422,0.082 -0.586,0.246 -0.163,0.164 -0.244,0.358 -0.244,0.585 l 0,1.664 c 0,0.228 0.081,0.423 0.244,0.587 0.164,0.164 0.36,0.245 0.586,0.245 l 0.625,0 c 0.058,0 0.107,0.02 0.147,0.06 0.04,0.04 0.06,0.09 0.06,0.148 0,0.058 -0.02,0.108 -0.06,0.148 -0.04,0.04 -0.089,0.06 -0.147,0.06 l -0.625,0 c -0.343,0 -0.637,-0.123 -0.881,-0.367 -0.244,-0.243 -0.365,-0.537 -0.365,-0.881 l 0,-1.664 c 0,-0.343 0.121,-0.637 0.365,-0.881 0.244,-0.244 0.538,-0.365 0.881,-0.365 z m 2.787,0 0.625,0 c 0.057,0 0.107,0.02 0.147,0.06 0.04,0.04 0.06,0.089 0.06,0.147 0,0.058 -0.02,0.107 -0.06,0.147 -0.04,0.04 -0.09,0.061 -0.147,0.061 l -0.625,0 c -0.226,0 -0.422,0.082 -0.586,0.246 -0.163,0.164 -0.245,0.358 -0.245,0.585 l 0,1.664 c 0,0.228 0.082,0.423 0.245,0.587 0.164,0.164 0.36,0.245 0.586,0.245 l 0.625,0 c 0.057,0 0.107,0.02 0.147,0.06 0.04,0.04 0.06,0.09 0.06,0.148 0,0.058 -0.02,0.108 -0.06,0.148 -0.04,0.04 -0.09,0.06 -0.147,0.06 l -0.625,0 c -0.343,0 -0.637,-0.123 -0.881,-0.367 -0.244,-0.243 -0.366,-0.537 -0.366,-0.881 l 0,-1.664 c 0,-0.343 0.122,-0.637 0.366,-0.881 0.244,-0.244 0.538,-0.365 0.881,-0.365 z m 1.641,0.06 c 0.04,-0.04 0.09,-0.06 0.148,-0.06 0.059,0 0.108,0.02 0.148,0.06 0.04,0.04 0.06,0.089 0.06,0.147 l 0,1.746 1.718,-1.887 c 0.042,-0.045 0.092,-0.066 0.154,-0.066 0.055,0 0.102,0.017 0.141,0.053 0.045,0.042 0.067,0.093 0.067,0.154 0,0.055 -0.019,0.102 -0.054,0.142 l -1.223,1.339 1.248,2.158 c 0.019,0.03 0.029,0.066 0.029,0.104 0,0.081 -0.035,0.14 -0.105,0.178 -0.029,0.021 -0.065,0.03 -0.103,0.03 -0.081,0 -0.141,-0.034 -0.18,-0.104 l -1.185,-2.042 -0.507,0.557 0,1.381 c 0,0.058 -0.02,0.108 -0.06,0.148 -0.04,0.04 -0.089,0.06 -0.148,0.06 -0.058,0 -0.108,-0.02 -0.148,-0.06 -0.039,-0.04 -0.06,-0.09 -0.06,-0.148 l 0,-3.743 c 0,-0.058 0.021,-0.107 0.06,-0.147 z m 3.392,4.098 c -0.058,0 -0.108,-0.02 -0.148,-0.06 -0.04,-0.04 -0.06,-0.09 -0.06,-0.148 l 0,-3.743 c 0,-0.058 0.02,-0.107 0.06,-0.147 0.04,-0.04 0.09,-0.06 0.148,-0.06 0.059,0 0.108,0.02 0.148,0.06 0.04,0.04 0.06,0.089 0.06,0.147 l 0,2.94 1.68,-3.024 c 0.044,-0.082 0.109,-0.123 0.191,-0.123 0.059,0 0.108,0.02 0.148,0.06 0.041,0.04 0.061,0.089 0.061,0.147 l 0,3.743 c 0,0.058 -0.02,0.108 -0.061,0.148 -0.04,0.04 -0.089,0.06 -0.148,0.06 -0.057,0 -0.107,-0.02 -0.147,-0.06 -0.04,-0.04 -0.06,-0.09 -0.06,-0.148 l 0,-2.941 -1.689,3.037 c -0.05,0.074 -0.11,0.112 -0.183,0.112 z m 3.327,0 c -0.058,0 -0.107,-0.02 -0.147,-0.06 -0.04,-0.04 -0.06,-0.09 -0.06,-0.148 l 0,-3.743 c 0,-0.058 0.02,-0.107 0.06,-0.147 0.04,-0.04 0.089,-0.06 0.147,-0.06 0.059,0 0.108,0.02 0.148,0.06 0.041,0.04 0.061,0.089 0.061,0.147 l 0,2.94 1.68,-3.024 c 0.043,-0.082 0.108,-0.123 0.191,-0.123 0.059,0 0.107,0.02 0.147,0.06 0.041,0.04 0.061,0.089 0.061,0.147 l 0,3.743 c 0,0.058 -0.02,0.108 -0.061,0.148 -0.04,0.04 -0.088,0.06 -0.147,0.06 -0.058,0 -0.108,-0.02 -0.148,-0.06 -0.039,-0.04 -0.06,-0.09 -0.06,-0.148 l 0,-2.941 -1.688,3.037 c -0.051,0.074 -0.111,0.112 -0.184,0.112 z m 0.625,-4.99 0.831,0 c 0.058,0 0.108,0.02 0.148,0.06 0.04,0.04 0.06,0.089 0.06,0.147 0,0.059 -0.02,0.107 -0.06,0.147 -0.04,0.042 -0.09,0.062 -0.148,0.062 l -0.831,0 c -0.059,0 -0.108,-0.02 -0.148,-0.062 -0.041,-0.04 -0.061,-0.088 -0.061,-0.147 0,-0.058 0.02,-0.107 0.061,-0.147 0.04,-0.04 0.089,-0.06 0.148,-0.06 z m -31.235,10.675 c -0.058,0 -0.107,-0.02 -0.147,-0.06 -0.04,-0.04 -0.06,-0.09 -0.06,-0.148 l 0,-3.743 c 0,-0.058 0.02,-0.107 0.06,-0.148 0.04,-0.04 0.089,-0.06 0.147,-0.06 0.059,0 0.108,0.02 0.148,0.06 0.041,0.041 0.06,0.09 0.06,0.148 l 0,2.94 1.681,-3.024 c 0.043,-0.082 0.108,-0.124 0.191,-0.124 0.059,0 0.107,0.02 0.147,0.06 0.041,0.041 0.061,0.09 0.061,0.148 l 0,3.743 c 0,0.058 -0.02,0.108 -0.061,0.148 -0.04,0.04 -0.088,0.06 -0.147,0.06 -0.058,0 -0.108,-0.02 -0.148,-0.06 -0.04,-0.04 -0.06,-0.09 -0.06,-0.148 l 0,-2.941 -1.688,3.037 c -0.051,0.074 -0.111,0.112 -0.184,0.112 z m 3.18,-4.099 c 0.04,-0.04 0.09,-0.06 0.148,-0.06 0.058,0 0.108,0.02 0.148,0.06 0.04,0.041 0.06,0.09 0.06,0.148 l 0,1.455 1.664,0 0,-1.455 c 0,-0.058 0.02,-0.107 0.06,-0.148 0.04,-0.04 0.089,-0.06 0.147,-0.06 0.059,0 0.107,0.02 0.147,0.06 0.042,0.041 0.062,0.09 0.062,0.148 l 0,3.743 c 0,0.058 -0.02,0.108 -0.062,0.148 -0.04,0.04 -0.088,0.06 -0.147,0.06 -0.058,0 -0.107,-0.02 -0.147,-0.06 -0.04,-0.04 -0.06,-0.09 -0.06,-0.148 l 0,-1.872 -1.664,0 0,1.872 c 0,0.058 -0.02,0.108 -0.06,0.148 -0.04,0.04 -0.09,0.06 -0.148,0.06 -0.058,0 -0.108,-0.02 -0.148,-0.06 -0.04,-0.04 -0.06,-0.09 -0.06,-0.148 l 0,-3.743 c 0,-0.058 0.02,-0.107 0.06,-0.148 z m 4.473,-0.06 0.624,0 c 0.058,0 0.108,0.02 0.148,0.06 0.04,0.041 0.06,0.09 0.06,0.148 0,0.057 -0.02,0.107 -0.06,0.147 -0.04,0.04 -0.09,0.061 -0.148,0.061 l -0.624,0 c -0.226,0 -0.422,0.082 -0.586,0.245 -0.163,0.164 -0.245,0.359 -0.245,0.586 l 0,1.664 c 0,0.227 0.082,0.423 0.245,0.587 0.164,0.163 0.36,0.245 0.586,0.245 l 0.624,0 c 0.058,0 0.108,0.02 0.148,0.06 0.04,0.04 0.06,0.089 0.06,0.148 0,0.058 -0.02,0.108 -0.06,0.148 -0.04,0.04 -0.09,0.06 -0.148,0.06 l -0.624,0 c -0.343,0 -0.637,-0.123 -0.882,-0.367 -0.243,-0.244 -0.365,-0.537 -0.365,-0.881 l 0,-1.664 c 0,-0.343 0.122,-0.637 0.365,-0.881 0.245,-0.244 0.539,-0.366 0.882,-0.366 z m 1.434,0.355 c -0.04,-0.04 -0.061,-0.09 -0.061,-0.147 0,-0.058 0.021,-0.107 0.061,-0.148 0.04,-0.04 0.09,-0.06 0.147,-0.06 l 1.04,0 1.04,0 c 0.058,0 0.107,0.02 0.147,0.06 0.04,0.041 0.061,0.09 0.061,0.148 0,0.057 -0.021,0.107 -0.061,0.147 -0.04,0.04 -0.089,0.061 -0.147,0.061 l -0.832,0 0,3.535 c 0,0.058 -0.02,0.108 -0.06,0.148 -0.041,0.04 -0.089,0.06 -0.148,0.06 -0.058,0 -0.108,-0.02 -0.148,-0.06 -0.04,-0.04 -0.06,-0.09 -0.06,-0.148 l 0,-3.535 -0.832,0 c -0.057,0 -0.107,-0.021 -0.147,-0.061 z m 3.266,-0.355 1.041,0 c 0.344,0 0.637,0.122 0.881,0.366 0.244,0.244 0.366,0.538 0.366,0.881 0,0.344 -0.122,0.639 -0.366,0.883 -0.244,0.243 -0.537,0.365 -0.881,0.365 l -0.832,0 0,1.456 c 0,0.058 -0.02,0.108 -0.06,0.148 -0.04,0.04 -0.09,0.06 -0.149,0.06 -0.058,0 -0.107,-0.02 -0.147,-0.06 -0.04,-0.04 -0.06,-0.09 -0.06,-0.148 l 0,-3.743 c 0,-0.058 0.02,-0.107 0.06,-0.148 0.04,-0.04 0.089,-0.06 0.147,-0.06 z m 0.209,0.416 0,1.663 0.832,0 c 0.227,0 0.423,-0.081 0.585,-0.245 0.164,-0.164 0.247,-0.36 0.247,-0.587 0,-0.227 -0.083,-0.422 -0.247,-0.586 -0.162,-0.163 -0.358,-0.245 -0.585,-0.245 l -0.832,0 z m 2.847,-0.356 c 0.04,-0.04 0.089,-0.06 0.147,-0.06 0.059,0 0.107,0.02 0.147,0.06 0.041,0.041 0.061,0.09 0.061,0.148 l 0,1.039 c 0,0.227 0.082,0.423 0.245,0.587 0.164,0.164 0.36,0.245 0.586,0.245 l 0.832,0 0,-1.871 c 0,-0.058 0.02,-0.107 0.061,-0.148 0.04,-0.04 0.089,-0.06 0.147,-0.06 0.058,0 0.108,0.02 0.148,0.06 0.04,0.041 0.06,0.09 0.06,0.148 l 0,2.911 c 0,0.288 -0.102,0.534 -0.303,0.736 -0.202,0.202 -0.448,0.304 -0.736,0.304 l -0.832,0 c -0.058,0 -0.108,-0.02 -0.148,-0.06 -0.04,-0.04 -0.06,-0.09 -0.06,-0.148 0,-0.059 0.02,-0.108 0.06,-0.148 0.04,-0.04 0.09,-0.06 0.148,-0.06 l 0.832,0 c 0.172,0 0.319,-0.061 0.44,-0.183 0.123,-0.123 0.183,-0.27 0.183,-0.441 l 0,-0.624 -0.832,0 c -0.343,0 -0.637,-0.122 -0.881,-0.365 -0.244,-0.244 -0.366,-0.539 -0.366,-0.883 l 0,-1.039 c 0,-0.058 0.02,-0.107 0.061,-0.148 z m 6.177,0.161 0,3.73 c 0,0.058 -0.02,0.108 -0.061,0.148 -0.04,0.04 -0.089,0.06 -0.147,0.06 -0.058,0 -0.107,-0.02 -0.147,-0.06 -0.04,-0.04 -0.061,-0.09 -0.061,-0.148 l 0,-2.99 -0.853,1.422 c -0.038,0.078 -0.101,0.117 -0.187,0.117 -0.078,0 -0.14,-0.04 -0.187,-0.122 l -0.852,-1.417 0,2.99 c 0,0.058 -0.02,0.108 -0.06,0.148 -0.04,0.04 -0.09,0.06 -0.149,0.06 -0.058,0 -0.107,-0.02 -0.147,-0.06 -0.04,-0.04 -0.06,-0.09 -0.06,-0.148 l 0,-3.73 c 0,-0.059 0.019,-0.11 0.056,-0.155 0.037,-0.044 0.085,-0.066 0.143,-0.066 0.081,0 0.146,0.041 0.196,0.12 l 1.06,1.763 1.061,-1.763 c 0.05,-0.079 0.115,-0.12 0.195,-0.12 0.059,0 0.106,0.022 0.144,0.066 0.038,0.045 0.056,0.093 0.056,0.146 l 0,0.009 z m 1.039,-0.221 1.663,0 c 0.059,0 0.108,0.02 0.148,0.06 0.041,0.041 0.061,0.09 0.061,0.148 0,0.057 -0.02,0.107 -0.061,0.147 -0.04,0.04 -0.089,0.061 -0.148,0.061 l -1.455,0 0,1.247 1.039,0 c 0.059,0 0.108,0.02 0.149,0.061 0.04,0.04 0.06,0.089 0.06,0.148 0,0.057 -0.02,0.107 -0.06,0.147 -0.041,0.04 -0.09,0.06 -0.149,0.06 l -1.039,0 0,1.664 1.455,0 c 0.059,0 0.108,0.02 0.148,0.06 0.041,0.04 0.061,0.089 0.061,0.148 0,0.058 -0.02,0.108 -0.061,0.148 -0.04,0.04 -0.089,0.06 -0.148,0.06 l -1.663,0 c -0.058,0 -0.108,-0.02 -0.148,-0.06 -0.04,-0.04 -0.06,-0.09 -0.06,-0.148 l 0,-3.743 c 0,-0.058 0.02,-0.107 0.06,-0.148 0.04,-0.04 0.09,-0.06 0.148,-0.06 z m 2.68,0.06 c 0.04,-0.04 0.09,-0.06 0.148,-0.06 0.059,0 0.108,0.02 0.148,0.06 0.04,0.041 0.06,0.09 0.06,0.148 l 0,1.455 1.664,0 0,-1.455 c 0,-0.058 0.02,-0.107 0.06,-0.148 0.04,-0.04 0.09,-0.06 0.147,-0.06 0.059,0 0.108,0.02 0.148,0.06 0.041,0.041 0.061,0.09 0.061,0.148 l 0,3.743 c 0,0.058 -0.02,0.108 -0.061,0.148 -0.04,0.04 -0.089,0.06 -0.148,0.06 -0.057,0 -0.107,-0.02 -0.147,-0.06 -0.04,-0.04 -0.06,-0.09 -0.06,-0.148 l 0,-1.872 -1.664,0 0,1.872 c 0,0.058 -0.02,0.108 -0.06,0.148 -0.04,0.04 -0.089,0.06 -0.148,0.06 -0.058,0 -0.108,-0.02 -0.148,-0.06 -0.04,-0.04 -0.06,-0.09 -0.06,-0.148 l 0,-3.743 c 0,-0.058 0.02,-0.107 0.06,-0.148 z m 3.12,0.295 c -0.04,-0.04 -0.061,-0.09 -0.061,-0.147 0,-0.058 0.021,-0.107 0.061,-0.148 0.04,-0.04 0.09,-0.06 0.148,-0.06 l 1.039,0 1.04,0 c 0.058,0 0.108,0.02 0.148,0.06 0.04,0.041 0.06,0.09 0.06,0.148 0,0.057 -0.02,0.107 -0.06,0.147 -0.04,0.04 -0.09,0.061 -0.148,0.061 l -0.831,0 0,3.535 c 0,0.058 -0.021,0.108 -0.061,0.148 -0.041,0.04 -0.089,0.06 -0.148,0.06 -0.058,0 -0.107,-0.02 -0.147,-0.06 -0.04,-0.04 -0.06,-0.09 -0.06,-0.148 l 0,-3.535 -0.832,0 c -0.058,0 -0.108,-0.021 -0.148,-0.061 z m 2.643,3.804 c -0.061,0 -0.111,-0.02 -0.149,-0.06 -0.039,-0.04 -0.059,-0.089 -0.059,-0.144 0,-0.025 0.004,-0.047 0.013,-0.066 l 1.243,-3.744 c 0.034,-0.096 0.1,-0.145 0.2,-0.145 0.097,0 0.165,0.056 0.204,0.166 l 1.238,3.723 c 0.01,0.019 0.013,0.041 0.013,0.066 0,0.055 -0.019,0.104 -0.057,0.144 -0.039,0.04 -0.09,0.06 -0.15,0.06 -0.045,0 -0.086,-0.013 -0.124,-0.04 -0.036,-0.026 -0.062,-0.06 -0.076,-0.102 l -0.3,-0.898 -1.497,0 -0.299,0.898 c -0.013,0.042 -0.04,0.076 -0.077,0.102 -0.038,0.027 -0.078,0.04 -0.123,0.04 z m 0.637,-1.456 1.223,0 -0.612,-1.838 -0.611,1.838 z m 2.525,1.248 c 0,-0.014 0.002,-0.033 0.008,-0.054 l 1.036,-3.722 c 0.035,-0.117 0.103,-0.175 0.204,-0.175 l 1.039,0 c 0.057,0 0.107,0.02 0.147,0.06 0.04,0.041 0.06,0.09 0.06,0.148 l 0,3.743 c 0,0.058 -0.02,0.108 -0.06,0.148 -0.04,0.04 -0.09,0.06 -0.147,0.06 -0.058,0 -0.108,-0.02 -0.148,-0.06 -0.04,-0.04 -0.061,-0.09 -0.061,-0.148 l 0,-3.535 -0.669,0 -1.002,3.588 c -0.028,0.103 -0.094,0.155 -0.2,0.155 -0.061,0 -0.111,-0.022 -0.15,-0.063 -0.038,-0.041 -0.057,-0.089 -0.057,-0.145 z m 3.386,-3.891 c 0.04,-0.04 0.09,-0.06 0.147,-0.06 0.059,0 0.109,0.02 0.149,0.06 0.04,0.041 0.06,0.09 0.06,0.148 l 0,1.455 0.832,0 c 0.344,0 0.637,0.122 0.881,0.367 0.244,0.243 0.367,0.537 0.367,0.881 0,0.344 -0.123,0.637 -0.367,0.881 -0.244,0.244 -0.537,0.367 -0.881,0.367 l -1.041,0 c -0.057,0 -0.107,-0.02 -0.147,-0.06 -0.04,-0.04 -0.06,-0.09 -0.06,-0.148 l 0,-3.743 c 0,-0.058 0.02,-0.107 0.06,-0.148 z m 0.356,2.019 0,1.664 0.832,0 c 0.227,0 0.423,-0.082 0.585,-0.245 0.164,-0.164 0.247,-0.36 0.247,-0.587 0,-0.228 -0.083,-0.423 -0.247,-0.586 -0.162,-0.164 -0.358,-0.246 -0.585,-0.246 l -0.832,0 z m 2.888,-2.019 c 0.04,-0.04 0.089,-0.06 0.147,-0.06 0.059,0 0.109,0.02 0.148,0.06 0.041,0.041 0.061,0.09 0.061,0.148 l 0,1.455 1.663,0 0,-1.455 c 0,-0.058 0.021,-0.107 0.061,-0.148 0.04,-0.04 0.089,-0.06 0.147,-0.06 0.059,0 0.107,0.02 0.147,0.06 0.041,0.041 0.061,0.09 0.061,0.148 l 0,3.743 c 0,0.058 -0.02,0.108 -0.061,0.148 -0.04,0.04 -0.088,0.06 -0.147,0.06 -0.058,0 -0.107,-0.02 -0.147,-0.06 -0.04,-0.04 -0.061,-0.09 -0.061,-0.148 l 0,-1.872 -1.663,0 0,1.872 c 0,0.058 -0.02,0.108 -0.061,0.148 -0.039,0.04 -0.089,0.06 -0.148,0.06 -0.058,0 -0.107,-0.02 -0.147,-0.06 -0.04,-0.04 -0.06,-0.09 -0.06,-0.148 l 0,-3.743 c 0,-0.058 0.02,-0.107 0.06,-0.148 z m 3.327,0 c 0.04,-0.04 0.09,-0.06 0.148,-0.06 0.059,0 0.108,0.02 0.148,0.06 0.04,0.041 0.06,0.09 0.06,0.148 l 0,1.455 0.416,0 c 0.344,0 0.638,0.122 0.881,0.367 0.244,0.243 0.367,0.537 0.367,0.881 0,0.344 -0.123,0.637 -0.367,0.881 -0.243,0.244 -0.537,0.367 -0.881,0.367 l -0.624,0 c -0.058,0 -0.108,-0.02 -0.148,-0.06 -0.04,-0.04 -0.06,-0.09 -0.06,-0.148 l 0,-3.743 c 0,-0.058 0.02,-0.107 0.06,-0.148 z m 0.356,2.019 0,1.664 0.416,0 c 0.228,0 0.423,-0.082 0.586,-0.245 0.164,-0.164 0.246,-0.36 0.246,-0.587 0,-0.228 -0.082,-0.423 -0.246,-0.586 -0.163,-0.164 -0.358,-0.246 -0.586,-0.246 l -0.416,0 z m 2.14,-2.019 c 0.04,-0.04 0.089,-0.06 0.147,-0.06 0.058,0 0.107,0.02 0.147,0.06 0.042,0.041 0.062,0.09 0.062,0.148 l 0,3.743 c 0,0.058 -0.02,0.108 -0.062,0.148 -0.04,0.04 -0.089,0.06 -0.147,0.06 -0.058,0 -0.107,-0.02 -0.147,-0.06 -0.04,-0.04 -0.06,-0.09 -0.06,-0.148 l 0,-3.743 c 0,-0.058 0.02,-0.107 0.06,-0.148 z m 1.394,4.099 c -0.058,0 -0.107,-0.02 -0.147,-0.06 -0.04,-0.04 -0.06,-0.09 -0.06,-0.148 l 0,-3.743 c 0,-0.058 0.02,-0.107 0.06,-0.148 0.04,-0.04 0.089,-0.06 0.147,-0.06 0.059,0 0.108,0.02 0.148,0.06 0.041,0.041 0.061,0.09 0.061,0.148 l 0,2.94 1.68,-3.024 c 0.043,-0.082 0.108,-0.124 0.191,-0.124 0.059,0 0.107,0.02 0.147,0.06 0.041,0.041 0.061,0.09 0.061,0.148 l 0,3.743 c 0,0.058 -0.02,0.108 -0.061,0.148 -0.04,0.04 -0.088,0.06 -0.147,0.06 -0.058,0 -0.108,-0.02 -0.148,-0.06 -0.04,-0.04 -0.06,-0.09 -0.06,-0.148 l 0,-2.941 -1.688,3.037 c -0.051,0.074 -0.111,0.112 -0.184,0.112 z m 0.625,-4.991 0.831,0 c 0.058,0 0.108,0.021 0.148,0.061 0.04,0.04 0.06,0.089 0.06,0.147 0,0.059 -0.02,0.107 -0.06,0.147 -0.04,0.041 -0.09,0.061 -0.148,0.061 l -0.831,0 c -0.059,0 -0.108,-0.02 -0.148,-0.061 -0.041,-0.04 -0.061,-0.088 -0.061,-0.147 0,-0.058 0.02,-0.107 0.061,-0.147 0.04,-0.04 0.089,-0.061 0.148,-0.061 z m -48.036,6.392 c 0.303,0 0.551,0.098 0.747,0.294 0.195,0.194 0.292,0.464 0.292,0.808 0,0.404 -0.135,0.707 -0.406,0.906 0.16,0.122 0.288,0.278 0.386,0.468 0.097,0.191 0.145,0.398 0.145,0.622 0,0.418 -0.11,0.741 -0.33,0.969 -0.22,0.227 -0.498,0.341 -0.834,0.341 -0.236,0 -0.446,-0.064 -0.631,-0.195 -0.183,-0.131 -0.313,-0.284 -0.388,-0.462 -0.013,-0.035 -0.021,-0.066 -0.021,-0.091 0,-0.059 0.021,-0.108 0.061,-0.148 0.04,-0.041 0.089,-0.06 0.147,-0.06 0.042,0 0.08,0.011 0.114,0.032 0.036,0.023 0.059,0.051 0.073,0.084 0.053,0.119 0.14,0.219 0.262,0.302 0.122,0.081 0.249,0.122 0.383,0.122 0.221,0 0.401,-0.074 0.541,-0.222 0.139,-0.149 0.207,-0.373 0.207,-0.672 0,-0.147 -0.027,-0.28 -0.08,-0.4 -0.054,-0.122 -0.121,-0.216 -0.203,-0.283 -0.08,-0.069 -0.161,-0.121 -0.242,-0.157 -0.082,-0.035 -0.156,-0.054 -0.223,-0.054 l -0.416,0 c -0.058,0 -0.107,-0.021 -0.148,-0.06 -0.04,-0.04 -0.06,-0.09 -0.06,-0.148 0,-0.059 0.02,-0.107 0.06,-0.147 0.041,-0.041 0.09,-0.061 0.148,-0.061 l 0.416,0 c 0.191,0 0.343,-0.058 0.456,-0.175 0.112,-0.116 0.168,-0.286 0.168,-0.511 0,-0.225 -0.056,-0.395 -0.168,-0.511 -0.113,-0.117 -0.265,-0.175 -0.456,-0.175 -0.089,0 -0.176,0.021 -0.259,0.066 -0.085,0.045 -0.149,0.103 -0.19,0.175 -0.037,0.061 -0.094,0.091 -0.175,0.091 -0.058,0 -0.107,-0.02 -0.148,-0.06 -0.04,-0.04 -0.06,-0.089 -0.06,-0.147 0,-0.039 0.013,-0.078 0.038,-0.117 0.083,-0.136 0.195,-0.24 0.339,-0.314 0.143,-0.073 0.295,-0.11 0.455,-0.11 z m 1.83,4.283 c -0.062,0 -0.111,-0.02 -0.15,-0.06 -0.039,-0.04 -0.059,-0.088 -0.059,-0.143 0,-0.025 0.005,-0.048 0.013,-0.067 l 1.243,-3.743 c 0.035,-0.097 0.1,-0.145 0.201,-0.145 0.096,0 0.165,0.056 0.204,0.166 l 1.238,3.722 c 0.009,0.019 0.013,0.042 0.013,0.067 0,0.055 -0.019,0.103 -0.058,0.143 -0.039,0.04 -0.09,0.06 -0.15,0.06 -0.044,0 -0.086,-0.013 -0.123,-0.04 -0.037,-0.026 -0.063,-0.06 -0.077,-0.101 l -0.299,-0.898 -1.498,0 -0.299,0.898 c -0.013,0.041 -0.039,0.075 -0.077,0.101 -0.038,0.027 -0.077,0.04 -0.122,0.04 z m 0.636,-1.455 1.223,0 -0.611,-1.838 -0.612,1.838 z m 2.899,-2.703 1.04,0 c 0.288,0 0.534,0.1 0.735,0.303 0.203,0.202 0.304,0.448 0.304,0.736 0,0.33 -0.128,0.599 -0.386,0.807 0.183,0.111 0.327,0.261 0.435,0.449 0.106,0.189 0.16,0.394 0.16,0.615 0,0.345 -0.123,0.638 -0.366,0.882 -0.245,0.244 -0.538,0.366 -0.882,0.366 l -1.04,0 c -0.058,0 -0.108,-0.02 -0.148,-0.06 -0.04,-0.04 -0.06,-0.089 -0.06,-0.147 l 0,-3.743 c 0,-0.058 0.02,-0.108 0.06,-0.148 0.04,-0.04 0.09,-0.06 0.148,-0.06 z m 0.208,0.416 0,1.247 0.832,0 c 0.172,0 0.318,-0.06 0.441,-0.183 0.121,-0.121 0.182,-0.269 0.182,-0.441 0,-0.172 -0.061,-0.319 -0.182,-0.44 -0.123,-0.123 -0.269,-0.183 -0.441,-0.183 l -0.832,0 z m 0,1.663 0,1.663 0.832,0 c 0.228,0 0.423,-0.081 0.586,-0.245 0.163,-0.163 0.246,-0.359 0.246,-0.587 0,-0.227 -0.083,-0.423 -0.246,-0.585 -0.163,-0.164 -0.358,-0.246 -0.586,-0.246 l -0.832,0 z"
             id="path36"
             style="fill:#000000;stroke:none" />
          <path
             d="m 292.625,424.86 c 0.244,-0.243 0.539,-0.365 0.881,-0.365 0.345,0 0.639,0.122 0.883,0.365 0.244,0.245 0.365,0.539 0.365,0.883 l 0,1.912 c 0,0.345 -0.121,0.638 -0.365,0.882 -0.244,0.244 -0.538,0.366 -0.883,0.366 -0.342,0 -0.637,-0.122 -0.881,-0.366 -0.244,-0.244 -0.365,-0.537 -0.365,-0.882 l 0,-1.912 c 0,-0.344 0.121,-0.638 0.365,-0.883 z m 1.468,0.296 c -0.164,-0.163 -0.359,-0.245 -0.587,-0.245 -0.226,0 -0.421,0.082 -0.585,0.245 -0.164,0.164 -0.245,0.36 -0.245,0.587 l 0,1.912 c 0,0.228 0.081,0.423 0.245,0.587 0.164,0.164 0.359,0.245 0.585,0.245 0.228,0 0.423,-0.081 0.587,-0.245 0.164,-0.164 0.245,-0.359 0.245,-0.587 l 0,-1.912 c 0,-0.227 -0.081,-0.423 -0.245,-0.587 z m 1.95,-0.353 c 0.014,-0.123 0.092,-0.183 0.233,-0.183 l 1.224,0 c 0.057,0 0.107,0.02 0.147,0.06 0.04,0.04 0.06,0.09 0.06,0.148 l 0,3.534 0.209,0 c 0.057,0 0.107,0.02 0.147,0.061 0.04,0.04 0.06,0.089 0.06,0.148 l 0,0.415 c 0,0.059 -0.02,0.108 -0.06,0.148 -0.04,0.04 -0.09,0.06 -0.147,0.06 -0.059,0 -0.107,-0.02 -0.149,-0.06 -0.04,-0.04 -0.06,-0.089 -0.06,-0.148 l 0,-0.208 -2.079,0 0,0.208 c 0,0.059 -0.019,0.108 -0.061,0.148 -0.04,0.04 -0.089,0.06 -0.147,0.06 -0.058,0 -0.107,-0.02 -0.147,-0.06 -0.04,-0.04 -0.06,-0.089 -0.06,-0.148 l 0,-0.415 c 0,-0.059 0.02,-0.108 0.06,-0.148 0.04,-0.041 0.089,-0.061 0.147,-0.061 l 0.229,0 0.394,-3.559 z m 1.248,3.559 0,-3.326 -0.852,0 -0.375,3.326 1.227,0 z"
             id="path38"
             style="fill:#000000;stroke:none" />
        </g>
      </g>
    </g>
  </g>
  <g
     id="g40" />
</svg>
