<?xml version="1.0" encoding="UTF-8" standalone="no"?>
<!-- Created with Inkscape (http://www.inkscape.org/) -->

<svg
   xmlns:dc="http://purl.org/dc/elements/1.1/"
   xmlns:cc="http://creativecommons.org/ns#"
   xmlns:rdf="http://www.w3.org/1999/02/22-rdf-syntax-ns#"
   xmlns:svg="http://www.w3.org/2000/svg"
   xmlns="http://www.w3.org/2000/svg"
   version="1.1"
   width="744.09448"
   height="1052.3622"
   id="svg3669">
  <defs
     id="defs3671" />
  <metadata
     id="metadata3674">
    <rdf:RDF>
      <cc:Work
         rdf:about="">
        <dc:format>image/svg+xml</dc:format>
        <dc:type
           rdf:resource="http://purl.org/dc/dcmitype/StillImage" />
        <dc:title></dc:title>
      </cc:Work>
    </rdf:RDF>
  </metadata>
  <g
     id="layer1">
    <g
       transform="matrix(2.6886202,0,0,2.6886202,-325.83252,-439.24042)"
       id="g18"
       style="fill-rule:evenodd">
      <path
         d="m 251.615,421.579 2.183,0 c -0.492,-1.391 -1.818,-2.388 -3.377,-2.388 l 0,-2.387 c 3.296,0 5.969,2.672 5.969,5.969 0,3.296 -2.673,5.969 -5.969,5.969 l 0,-2.388 c 1.559,0 2.885,-0.997 3.377,-2.388 l -2.183,0 0,-2.387 z"
         id="path20"
         style="fill:none;stroke:#000000;stroke-width:0.479965" />
      <path
         d="m 250.421,413.03 9.55,0 0,10.937 3.581,-6.203 0,-4.541 2.388,0 0,13.131 6.565,0 0,2.388 -8.953,0 0,-6.203 -3.581,6.203 -2.388,0 0,-13.325 -7.162,0 0,-2.387 z"
         id="path22"
         style="fill:none;stroke:#000000;stroke-width:0.479965" />
      <path
         d="m 268.327,424.967 c 2.308,0 4.178,-1.87 4.178,-4.178 0,-1.331 -0.622,-2.517 -1.593,-3.282 0.254,-0.439 0.4,-0.949 0.4,-1.493 0,-1.648 -1.336,-2.984 -2.985,-2.984 l -1.193,0 0,2.387 1.193,0 c 0.33,0 0.597,0.268 0.597,0.597 0,0.33 -0.267,0.597 -0.597,0.597 l -1.193,0 0,2.388 1.193,0 c 0.989,0 1.791,0.801 1.791,1.79 0,0.989 -0.802,1.791 -1.791,1.791 l -1.193,0 0,2.387 1.193,0 z"
         id="path24"
         style="fill:none;stroke:#000000;stroke-width:0.479965" />
      <path
         d="m 277.043,413.777 c 0.402,0.189 0.783,0.41 1.141,0.658 -0.461,0.548 -0.434,1.368 0.082,1.884 0.516,0.515 1.334,0.543 1.882,0.083 0.251,0.361 0.471,0.743 0.658,1.14 -0.672,0.245 -1.057,0.968 -0.868,1.672 0.189,0.705 0.884,1.138 1.59,1.013 0.036,0.434 0.037,0.874 -0.001,1.317 -0.705,-0.125 -1.4,0.309 -1.589,1.013 -0.189,0.705 0.197,1.428 0.87,1.672 -0.189,0.403 -0.41,0.784 -0.659,1.141 -0.548,-0.461 -1.367,-0.433 -1.883,0.083 -0.515,0.515 -0.543,1.333 -0.084,1.881 -0.361,0.251 -0.742,0.471 -1.14,0.658 -0.245,-0.671 -0.967,-1.056 -1.671,-0.868 -0.705,0.189 -1.138,0.885 -1.013,1.59 -0.218,0.019 -0.438,0.028 -0.659,0.028 l 0,-2.388 c 3.02,0 5.469,-2.448 5.469,-5.468 0,-3.02 -2.449,-5.469 -5.469,-5.469 l 0,-2.387 c 0.219,0 0.438,0.009 0.659,0.028 -0.125,0.705 0.308,1.4 1.013,1.589 0.704,0.189 1.427,-0.197 1.672,-0.87 z"
         id="path26"
         style="fill:none;stroke:#000000;stroke-width:0.479965" />
      <path
         d="m 273.699,416.588 c 2.374,0 4.298,1.924 4.298,4.298 0,2.373 -1.924,4.297 -4.298,4.297 l 0,-3.226 c 0.592,0 1.072,-0.479 1.072,-1.071 0,-0.592 -0.48,-1.072 -1.072,-1.072 l 0,-3.226 z"
         id="path28"
         style="fill:none;stroke:#000000;stroke-width:0.479965" />
      <path
         d="m 245.883,413.777 c -0.402,0.189 -0.783,0.41 -1.14,0.658 0.46,0.548 0.433,1.368 -0.083,1.884 -0.515,0.515 -1.333,0.543 -1.882,0.083 -0.25,0.361 -0.47,0.743 -0.658,1.14 0.672,0.245 1.057,0.968 0.869,1.672 -0.189,0.705 -0.885,1.138 -1.59,1.013 -0.037,0.434 -0.037,0.874 0,1.317 0.705,-0.125 1.401,0.309 1.589,1.013 0.189,0.705 -0.196,1.428 -0.869,1.672 0.189,0.403 0.409,0.784 0.658,1.141 0.548,-0.461 1.367,-0.433 1.883,0.083 0.516,0.515 0.543,1.333 0.084,1.881 0.361,0.251 0.742,0.471 1.14,0.658 0.245,-0.671 0.967,-1.056 1.671,-0.868 0.705,0.189 1.139,0.885 1.014,1.59 0.218,0.019 0.437,0.028 0.658,0.028 l 0,-2.388 c -3.02,0 -5.468,-2.448 -5.468,-5.468 0,-3.02 2.448,-5.469 5.468,-5.469 l 0,-2.387 c -0.218,0 -0.438,0.009 -0.658,0.028 0.124,0.705 -0.309,1.4 -1.013,1.589 -0.705,0.189 -1.428,-0.197 -1.673,-0.87 z"
         id="path30"
         style="fill:none;stroke:#000000;stroke-width:0.479965" />
      <path
         d="m 249.227,416.588 c -2.373,0 -4.297,1.924 -4.297,4.298 0,2.373 1.924,4.297 4.297,4.297 l 0,-3.226 c -0.592,0 -1.071,-0.479 -1.071,-1.071 0,-0.592 0.479,-1.072 1.071,-1.072 l 0,-3.226 z"
         id="path32"
         style="fill:none;stroke:#000000;stroke-width:0.479965" />
    </g>
  </g>
</svg>
